<?xml version="1.0" ?><svg viewBox="0 0 80 80" xmlns="http://www.w3.org/2000/svg"><title/><g data-name="레이어 2" id="레이어_2"><g data-name="레이어 1" id="레이어_1-2"><path d="M49.65,20.92H30.35a9.42,9.42,0,0,0-9.42,9.42V49.65a9.42,9.42,0,0,0,9.42,9.42H49.65a9.42,9.42,0,0,0,9.42-9.42V30.35A9.42,9.42,0,0,0,49.65,20.92ZM40,52.35A12.35,12.35,0,1,1,52.35,40,12.37,12.37,0,0,1,40,52.35ZM52.38,30.7a3,3,0,1,1,3-3A3,3,0,0,1,52.38,30.7Z"/><circle cx="40" cy="40" r="7.55"/><path d="M40,0A40,40,0,1,0,80,40,40,40,0,0,0,40,0ZM63.88,49.65A14.25,14.25,0,0,1,49.65,63.88H30.35A14.25,14.25,0,0,1,16.12,49.65V30.35A14.25,14.25,0,0,1,30.35,16.12H49.65A14.25,14.25,0,0,1,63.88,30.35Z"/></g></g></svg>