<?xml version="1.0" ?><!DOCTYPE svg  PUBLIC '-//W3C//DTD SVG 1.1//EN'  'http://www.w3.org/Graphics/SVG/1.1/DTD/svg11.dtd'><svg enable-background="new 0 0 128 128" height="128px" version="1.1" viewBox="0 0 128 128" width="128px" xml:space="preserve" xmlns="http://www.w3.org/2000/svg" xmlns:xlink="http://www.w3.org/1999/xlink"><g id="OBJECT"><path d="M105.018,0.598H22.982c-1.104,0-2,0.896-2,2v122.805c0,0.813,0.493,1.546,1.246,1.853c0.244,0.1,0.5,0.147,0.754,0.147   c0.528,0,1.048-0.21,1.432-0.604l38.854-39.831l40.344,39.857c0.575,0.567,1.434,0.733,2.176,0.423   c0.745-0.312,1.229-1.039,1.229-1.846V2.598C107.018,1.493,106.122,0.598,105.018,0.598z M103.018,120.615l-38.37-37.907   c-0.374-0.37-0.879-0.577-1.405-0.577c-0.006,0-0.013,0-0.019,0c-0.532,0.005-1.041,0.223-1.413,0.604l-36.828,37.754v-96.52   h48.757c1.104,0,2-0.896,2-2s-0.896-2-2-2H24.982V4.598h78.035V120.615z"/></g></svg>